<svg width="24" height="24" viewBox="0 0 24 24" fill="red" xmlns="http://www.w3.org/2000/svg">
<path fill-rule="evenodd" clip-rule="evenodd" d="M6.60609 0.753154C7.08833 0.270917 7.74238 0 8.42436 0H15.5756C16.2576 0 16.9117 0.270917 17.3938 0.753154L23.2469 6.60609C23.7291 7.08833 24 7.74238 24 8.42436V15.5756C24 16.2576 23.7291 16.9117 23.2469 17.3938L17.3938 23.2469C16.9117 23.7291 16.2576 24 15.5756 24H8.42436C7.74238 24 7.08833 23.7291 6.60609 23.2469L0.753154 17.3938C0.270917 16.9117 0 16.2576 0 15.5756V8.42436C0 7.74238 0.270917 7.08833 0.753154 6.60609L6.60609 0.753154ZM12 5.35714C12.7101 5.35714 13.2857 5.93278 13.2857 6.64286V12.2143C13.2857 12.9244 12.7101 13.5 12 13.5C11.2899 13.5 10.7143 12.9244 10.7143 12.2143V6.64286C10.7143 5.93278 11.2899 5.35714 12 5.35714ZM13.7143 16.9286C13.7143 17.8754 12.9468 18.6429 12 18.6429C11.0532 18.6429 10.2857 17.8754 10.2857 16.9286C10.2857 15.9818 11.0532 15.2143 12 15.2143C12.9468 15.2143 13.7143 15.9818 13.7143 16.9286Z" fill="current"/>
</svg>
